<svg width="271" height="142" viewBox="0 0 271 142" fill="none" xmlns="http://www.w3.org/2000/svg">
<path d="M51.25 37.4375C51.25 44.1042 47.7812 47.75 40.8438 48.375V48.7188C44.4688 48.8021 47.3229 49.7917 49.4062 51.6875C51.4896 53.5833 52.5312 56.3229 52.5312 59.9062C52.5312 61.4062 52.3542 62.8854 52 64.3438C51.6458 65.7812 50.875 67.0625 49.6875 68.1875C48.5208 69.3125 46.8229 70.2292 44.5938 70.9375C42.3854 71.6458 39.4062 72 35.6562 72H1.28125V60.4062C3.11458 60.4062 4.42708 60.1667 5.21875 59.6875C6.01042 59.1875 6.40625 58.2604 6.40625 56.9062V41.0938C6.40625 39.7188 6.01042 38.7917 5.21875 38.3125C4.42708 37.8125 3.11458 37.5625 1.28125 37.5625V25.9688H37.8125C40.6875 25.9688 43.0104 26.2917 44.7812 26.9375C46.5521 27.5833 47.9167 28.4375 48.875 29.5C49.8333 30.5625 50.4688 31.7917 50.7812 33.1875C51.0938 34.5625 51.25 35.9792 51.25 37.4375ZM29.5 60.4062C31.25 60.4062 32.4583 60.0729 33.125 59.4062C33.7917 58.7188 34.125 57.5833 34.125 56C34.125 54.4167 33.7917 53.2708 33.125 52.5625C32.4583 51.8333 31.25 51.4688 29.5 51.4688H24.8438V60.4062H29.5ZM24.8438 45.9375H29.5625C30.8542 45.9375 31.7812 45.5312 32.3438 44.7188C32.9271 43.8854 33.2188 42.8854 33.2188 41.7188C33.2188 40.6146 32.9271 39.6458 32.3438 38.8125C31.7812 37.9792 30.8542 37.5625 29.5625 37.5625H24.8438V45.9375ZM95.9263 57.9062C95.9263 58.9062 96.2075 59.5729 96.77 59.9062C97.3533 60.2396 98.0096 60.4062 98.7388 60.4062H100.395V72H81.8325V63.4375H81.3325C80.8533 66.625 79.5513 69.0417 77.4263 70.6875C75.3013 72.3333 72.2075 73.1562 68.145 73.1562C65.2908 73.1562 62.9679 72.75 61.1763 71.9375C59.3846 71.125 57.9992 70.1042 57.02 68.875C56.0408 67.625 55.3638 66.2812 54.9888 64.8438C54.6346 63.3854 54.4575 62.0208 54.4575 60.75V52.2188C54.4575 51.1146 54.2596 50.3333 53.8638 49.875C53.4888 49.3958 52.7492 49.1562 51.645 49.1562H49.77V37.5625H71.6138V57.2812C71.6138 58.0938 71.7075 58.75 71.895 59.25C72.0825 59.7292 72.3221 60.1042 72.6138 60.375C72.9263 60.625 73.27 60.7917 73.645 60.875C74.0408 60.9583 74.4054 61 74.7388 61C76.1138 61 77.1242 60.6042 77.77 59.8125C78.4367 59.0208 78.77 57.8958 78.77 56.4375V52.2188C78.77 51.1146 78.5721 50.3333 78.1763 49.875C77.8013 49.3958 77.0617 49.1562 75.9575 49.1562H74.1138V37.5625H95.9263V57.9062ZM121.603 25.9688V57.0312C121.603 58.4271 121.946 59.3438 122.634 59.7812C123.321 60.1979 124.196 60.4062 125.259 60.4062H126.103V72H99.79V60.4062H101.009C102.113 60.4062 102.925 60.0625 103.446 59.375C103.988 58.6667 104.259 57.9062 104.259 57.0938V41.0938C104.259 39.8854 103.873 39 103.103 38.4375C102.353 37.8542 101.478 37.5625 100.478 37.5625H99.79V25.9688H121.603ZM141.372 56.7188C141.456 59.8229 142.039 61.9688 143.122 63.1562C144.227 64.3229 145.8 64.9062 147.841 64.9062C148.529 64.9062 149.195 64.8125 149.841 64.625C150.508 64.4167 151.122 64.0938 151.685 63.6562C152.247 63.1979 152.727 62.6042 153.122 61.875C153.539 61.125 153.81 60.1875 153.935 59.0625H165.31C164.893 61.75 164.122 64 162.997 65.8125C161.893 67.625 160.466 69.0938 158.716 70.2188C156.966 71.3229 154.925 72.1146 152.591 72.5938C150.279 73.0938 147.695 73.3438 144.841 73.3438C141.904 73.3438 139.143 72.9688 136.56 72.2188C133.977 71.4688 131.706 70.3333 129.747 68.8125C127.81 67.2708 126.289 65.3438 125.185 63.0312C124.081 60.6979 123.529 57.9271 123.529 54.7188C123.529 51.6562 124.05 48.9688 125.091 46.6562C126.133 44.3438 127.591 42.4167 129.466 40.875C131.362 39.3125 133.591 38.1354 136.154 37.3438C138.737 36.5521 141.57 36.1562 144.654 36.1562C148.445 36.1562 151.706 36.6562 154.435 37.6562C157.164 38.6562 159.393 40.0521 161.122 41.8438C162.852 43.6354 164.122 45.7917 164.935 48.3125C165.747 50.8333 166.133 53.6354 166.091 56.7188H141.372ZM145.997 44.5938C144.539 44.5938 143.456 45.1146 142.747 46.1562C142.06 47.1771 141.602 48.875 141.372 51.25H150.529C150.404 49.2083 149.966 47.5938 149.216 46.4062C148.466 45.1979 147.393 44.5938 145.997 44.5938Z" fill="#FFE8C6"/>
<path d="M80.0625 73.9688V92.2812H69.7812C69.7812 90.8854 69.7396 89.6771 69.6562 88.6562C69.5938 87.6146 69.4375 86.7812 69.1875 86.1562C68.9375 85.5104 68.5521 85.0417 68.0312 84.75C67.5312 84.4375 66.8542 84.2812 66 84.2812H64.0625V104.906C64.0625 106.26 64.4583 107.188 65.25 107.688C66.0417 108.167 67.3542 108.406 69.1875 108.406V120H40.5312V108.406C42.3646 108.406 43.6667 108.167 44.4375 107.688C45.2292 107.188 45.625 106.26 45.625 104.906V84.2812H43.7188C42.8646 84.2812 42.1771 84.4375 41.6562 84.75C41.1562 85.0417 40.7708 85.5104 40.5 86.1562C40.25 86.7812 40.0938 87.6146 40.0312 88.6562C39.9688 89.6771 39.9375 90.8854 39.9375 92.2812H29.625V73.9688H80.0625ZM111.52 84.1562C114.27 84.1562 116.499 84.5625 118.208 85.375C119.937 86.1875 121.28 87.2188 122.239 88.4688C123.218 89.6979 123.885 91.0417 124.239 92.5C124.593 93.9375 124.77 95.2917 124.77 96.5625V105.344C124.77 106.448 124.958 107.24 125.333 107.719C125.728 108.177 126.478 108.406 127.583 108.406H129.27V120H107.645V100.031C107.645 99.2188 107.541 98.5729 107.333 98.0938C107.145 97.5938 106.895 97.2188 106.583 96.9688C106.291 96.6979 105.958 96.5208 105.583 96.4375C105.208 96.3542 104.843 96.3125 104.489 96.3125C103.135 96.3125 102.124 96.7083 101.458 97.5C100.791 98.2917 100.458 99.4167 100.458 100.875V105.344C100.458 106.448 100.645 107.24 101.02 107.719C101.416 108.177 102.166 108.406 103.27 108.406H105.583V120H78.8325V108.406H80.6763C81.5304 108.406 82.1763 108.135 82.6138 107.594C83.0721 107.031 83.3013 106.365 83.3013 105.594L83.2388 89.0938C83.2388 87.8854 82.8533 87 82.0825 86.4375C81.3325 85.8542 80.4575 85.5625 79.4575 85.5625H78.8325V73.9688H100.458V85.5625C100.458 85.9583 100.333 86.6458 100.083 87.625C99.8325 88.6042 99.3638 89.5833 98.6763 90.5625L99.3013 90.875C100.426 88.8333 101.937 87.2083 103.833 86C105.728 84.7708 108.291 84.1562 111.52 84.1562ZM144.54 104.719C144.623 107.823 145.207 109.969 146.29 111.156C147.394 112.323 148.967 112.906 151.009 112.906C151.696 112.906 152.363 112.812 153.009 112.625C153.675 112.417 154.29 112.094 154.853 111.656C155.415 111.198 155.894 110.604 156.29 109.875C156.707 109.125 156.978 108.188 157.103 107.062H168.478C168.061 109.75 167.29 112 166.165 113.812C165.061 115.625 163.634 117.094 161.884 118.219C160.134 119.323 158.092 120.115 155.759 120.594C153.446 121.094 150.863 121.344 148.009 121.344C145.071 121.344 142.311 120.969 139.728 120.219C137.144 119.469 134.873 118.333 132.915 116.812C130.978 115.271 129.457 113.344 128.353 111.031C127.248 108.698 126.696 105.927 126.696 102.719C126.696 99.6562 127.217 96.9688 128.259 94.6562C129.3 92.3438 130.759 90.4167 132.634 88.875C134.53 87.3125 136.759 86.1354 139.321 85.3438C141.905 84.5521 144.738 84.1562 147.821 84.1562C151.613 84.1562 154.873 84.6562 157.603 85.6562C160.332 86.6562 162.561 88.0521 164.29 89.8438C166.019 91.6354 167.29 93.7917 168.103 96.3125C168.915 98.8333 169.3 101.635 169.259 104.719H144.54ZM149.165 92.5938C147.707 92.5938 146.623 93.1146 145.915 94.1562C145.228 95.1771 144.769 96.875 144.54 99.25H153.696C153.571 97.2083 153.134 95.5938 152.384 94.4062C151.634 93.1979 150.561 92.5938 149.165 92.5938ZM212.716 105.906C212.716 106.906 212.997 107.573 213.56 107.906C214.143 108.24 214.8 108.406 215.529 108.406H217.185V120H198.622V111.438H198.122C197.643 114.625 196.341 117.042 194.216 118.688C192.091 120.333 188.997 121.156 184.935 121.156C182.081 121.156 179.758 120.75 177.966 119.938C176.175 119.125 174.789 118.104 173.81 116.875C172.831 115.625 172.154 114.281 171.779 112.844C171.425 111.385 171.247 110.021 171.247 108.75V100.219C171.247 99.1146 171.05 98.3333 170.654 97.875C170.279 97.3958 169.539 97.1562 168.435 97.1562H166.56V85.5625H188.404V105.281C188.404 106.094 188.497 106.75 188.685 107.25C188.872 107.729 189.112 108.104 189.404 108.375C189.716 108.625 190.06 108.792 190.435 108.875C190.831 108.958 191.195 109 191.529 109C192.904 109 193.914 108.604 194.56 107.812C195.227 107.021 195.56 105.896 195.56 104.438V100.219C195.56 99.1146 195.362 98.3333 194.966 97.875C194.591 97.3958 193.852 97.1562 192.747 97.1562H190.904V85.5625H212.716V105.906ZM245.393 100.031C245.393 99.2188 245.288 98.5729 245.08 98.0938C244.893 97.5938 244.643 97.2188 244.33 96.9688C244.038 96.6979 243.705 96.5208 243.33 96.4375C242.955 96.3542 242.59 96.3125 242.236 96.3125C240.882 96.3125 239.872 96.7083 239.205 97.5C238.538 98.2917 238.205 99.4167 238.205 100.875V105.344C238.205 106.448 238.393 107.24 238.768 107.719C239.163 108.177 239.913 108.406 241.018 108.406H242.705V120H216.58V108.406H218.424C219.278 108.406 219.924 108.135 220.361 107.594C220.82 107.031 221.049 106.365 221.049 105.594V99.6562C221.049 98.6771 220.757 98.0208 220.174 97.6875C219.611 97.3333 218.965 97.1562 218.236 97.1562H216.58V85.5625H235.143L234.486 94.1562H235.018C235.476 90.9479 236.882 88.4792 239.236 86.75C241.59 85.0208 244.788 84.1562 248.83 84.1562C251.684 84.1562 254.007 84.5625 255.799 85.375C257.59 86.1875 258.976 87.2188 259.955 88.4688C260.955 89.6979 261.632 91.0417 261.986 92.5C262.34 93.9375 262.518 95.2917 262.518 96.5625V105.344C262.518 106.448 262.705 107.24 263.08 107.719C263.476 108.177 264.226 108.406 265.33 108.406H267.018V120H245.393V100.031Z" fill="#FFE8C6"/>
<g clip-path="url(#clip0_3_3)">
<path fill-rule="evenodd" clip-rule="evenodd" d="M175.94 57.8033L198.427 70.85L196.91 73.4833C194.597 77.5033 190.28 80 185.647 80C183.373 80 181.13 79.3967 179.157 78.2533C174.997 75.8433 172.667 71.4567 172.667 66.9533C172.667 64.75 173.227 62.5167 174.4 60.4767L175.94 57.8033V57.8033ZM202.103 7.82667L187.737 53.1533L208.103 11.9133L218.1 10.6233L221.9 19.74L196.39 58.07L228.7 22.7667L238.977 23.9333L239.333 37.86L201.753 65.07V65.0733L179.233 52.0067L183.657 5.54667L195.533 0L202.103 7.82667V7.82667Z" fill="#FAC77C"/>
</g>
<path d="M201.168 134.752C201.413 136.725 202.395 137.712 204.112 137.712C204.645 137.712 205.067 137.536 205.376 137.184C205.696 136.832 205.861 136.368 205.872 135.792C205.872 135.376 205.728 135.013 205.44 134.704C205.163 134.384 204.779 134.128 204.288 133.936L202.656 133.28C202.08 133.045 201.643 132.731 201.344 132.336C201.045 131.941 200.896 131.477 200.896 130.944C200.896 130.464 201.008 130.021 201.232 129.616C201.456 129.211 201.792 128.891 202.24 128.656C202.688 128.411 203.227 128.288 203.856 128.288C204.197 128.288 204.485 128.32 204.72 128.384C204.965 128.437 205.205 128.507 205.44 128.592C205.675 128.667 205.835 128.72 205.92 128.752C206.091 128.816 206.235 128.848 206.352 128.848C206.544 128.848 206.699 128.827 206.816 128.784C206.784 129.04 206.768 129.44 206.768 129.984C206.768 130.304 206.773 130.533 206.784 130.672C206.795 130.811 206.821 130.939 206.864 131.056H206.448C206.448 130.363 206.219 129.803 205.76 129.376C205.312 128.939 204.747 128.72 204.064 128.72C203.509 128.72 203.061 128.875 202.72 129.184C202.379 129.483 202.208 129.904 202.208 130.448C202.208 130.8 202.331 131.12 202.576 131.408C202.821 131.685 203.157 131.909 203.584 132.08L205.056 132.672C205.867 133.003 206.443 133.371 206.784 133.776C207.136 134.171 207.312 134.683 207.312 135.312C207.312 135.867 207.173 136.363 206.896 136.8C206.629 137.227 206.261 137.563 205.792 137.808C205.333 138.043 204.832 138.16 204.288 138.16C203.957 138.16 203.669 138.144 203.424 138.112C203.179 138.091 202.917 138.037 202.64 137.952C202.075 137.792 201.653 137.712 201.376 137.712C201.28 137.712 201.179 137.723 201.072 137.744C200.965 137.765 200.885 137.781 200.832 137.792C200.875 137.568 200.896 137.125 200.896 136.464C200.896 135.6 200.853 135.029 200.768 134.752H201.168ZM209.842 127.712C210.098 127.712 210.306 127.781 210.466 127.92C210.637 128.059 210.722 128.24 210.722 128.464C210.722 128.709 210.642 128.901 210.482 129.04C210.322 129.168 210.109 129.232 209.842 129.232C209.586 129.232 209.378 129.168 209.218 129.04C209.058 128.901 208.978 128.709 208.978 128.464C208.978 128.24 209.058 128.059 209.218 127.92C209.378 127.781 209.586 127.712 209.842 127.712ZM210.642 137.312C210.642 137.515 210.712 137.616 210.85 137.616L211.426 137.584V138H208.466V137.584L209.058 137.616C209.197 137.616 209.266 137.515 209.266 137.312V131.984C209.266 131.803 209.202 131.696 209.074 131.664L208.482 131.696V131.28H210.642V137.312ZM220.064 137.584V138H216.944V137.584L217.68 137.616C217.819 137.584 217.888 137.483 217.888 137.312V133.68C217.888 133.168 217.862 132.773 217.808 132.496C217.766 132.219 217.67 132.005 217.52 131.856C217.371 131.707 217.136 131.632 216.816 131.632C216.208 131.632 215.712 131.893 215.328 132.416C214.955 132.928 214.752 133.621 214.72 134.496V137.312C214.72 137.515 214.79 137.616 214.928 137.616L215.664 137.584V138H212.544V137.584L213.136 137.616C213.275 137.584 213.344 137.483 213.344 137.312V131.984C213.344 131.803 213.275 131.696 213.136 131.664L212.544 131.696V131.28H214.8C214.747 131.44 214.72 131.627 214.72 131.84V132.72C214.944 132.219 215.264 131.829 215.68 131.552C216.096 131.264 216.576 131.12 217.12 131.12C217.878 131.12 218.422 131.301 218.752 131.664C219.094 132.016 219.264 132.592 219.264 133.392V137.312C219.264 137.515 219.334 137.616 219.472 137.616L220.064 137.584ZM224.103 131.12C224.54 131.12 224.945 131.195 225.319 131.344C225.703 131.483 226.007 131.68 226.231 131.936C226.465 132.181 226.583 132.453 226.583 132.752C226.583 132.976 226.519 133.168 226.391 133.328C226.273 133.477 226.081 133.552 225.815 133.552C225.441 133.552 225.255 133.392 225.255 133.072C225.255 132.987 225.276 132.88 225.319 132.752C225.372 132.624 225.399 132.501 225.399 132.384C225.399 132.117 225.276 131.915 225.031 131.776C224.785 131.627 224.492 131.552 224.151 131.552C223.596 131.552 223.175 131.776 222.887 132.224C222.599 132.672 222.455 133.44 222.455 134.528C222.455 135.605 222.604 136.411 222.903 136.944C223.201 137.467 223.655 137.728 224.263 137.728C224.796 137.728 225.271 137.579 225.687 137.28C226.113 136.981 226.391 136.56 226.519 136.016L226.903 136.304C226.711 136.88 226.38 137.333 225.911 137.664C225.452 137.995 224.876 138.16 224.183 138.16C223.18 138.16 222.391 137.856 221.815 137.248C221.249 136.629 220.967 135.781 220.967 134.704C220.967 133.979 221.095 133.349 221.351 132.816C221.617 132.272 221.985 131.856 222.455 131.568C222.935 131.269 223.484 131.12 224.103 131.12ZM230.964 131.12C231.806 131.12 232.484 131.392 232.996 131.936C233.518 132.469 233.79 133.205 233.812 134.144V134.608H229.204C229.204 135.579 229.369 136.325 229.7 136.848C230.041 137.36 230.548 137.621 231.22 137.632C231.753 137.632 232.201 137.499 232.564 137.232C232.937 136.965 233.209 136.635 233.38 136.24L233.748 136.512C233.534 137.024 233.172 137.429 232.66 137.728C232.158 138.016 231.604 138.16 230.996 138.16C228.83 138.16 227.748 136.992 227.748 134.656C227.748 133.493 228.02 132.613 228.564 132.016C229.108 131.419 229.908 131.12 230.964 131.12ZM230.964 131.552C230.366 131.552 229.924 131.797 229.636 132.288C229.358 132.779 229.22 133.419 229.22 134.208H232.132C232.238 134.208 232.318 134.171 232.372 134.096C232.425 134.021 232.452 133.883 232.452 133.68C232.452 132.955 232.334 132.421 232.1 132.08C231.876 131.728 231.497 131.552 230.964 131.552ZM245.171 135.36C244.925 136.768 244.792 137.664 244.771 138.048C244.675 138.016 244.387 138 243.907 138H238.675L238.643 137.28L240.515 135.504C241.133 134.907 241.635 134.379 242.019 133.92C242.413 133.461 242.723 132.976 242.947 132.464C243.181 131.952 243.299 131.403 243.299 130.816C243.299 130.144 243.155 129.627 242.867 129.264C242.579 128.901 242.189 128.72 241.699 128.72C241.219 128.72 240.829 128.832 240.531 129.056C240.232 129.269 240.083 129.568 240.083 129.952C240.083 130.08 240.115 130.24 240.179 130.432C240.232 130.56 240.259 130.688 240.259 130.816C240.259 131.029 240.179 131.184 240.019 131.28C239.869 131.365 239.704 131.408 239.523 131.408C239.277 131.408 239.08 131.328 238.931 131.168C238.792 131.008 238.723 130.784 238.723 130.496C238.723 130.123 238.835 129.771 239.059 129.44C239.283 129.099 239.629 128.821 240.099 128.608C240.568 128.395 241.144 128.288 241.827 128.288C242.68 128.288 243.379 128.491 243.923 128.896C244.467 129.291 244.739 129.952 244.739 130.88C244.739 131.317 244.653 131.739 244.483 132.144C244.323 132.539 244.029 132.987 243.603 133.488C243.176 133.989 242.563 134.597 241.763 135.312L239.907 136.944H242.739C243.336 136.944 243.779 136.832 244.067 136.608C244.355 136.373 244.531 135.957 244.595 135.36H245.171ZM246.464 133.248C246.464 131.616 246.811 130.384 247.504 129.552C248.198 128.709 249.12 128.288 250.272 128.288C251.435 128.288 252.363 128.715 253.056 129.568C253.76 130.411 254.112 131.637 254.112 133.248C254.112 134.848 253.766 136.069 253.072 136.912C252.379 137.744 251.446 138.16 250.272 138.16C249.099 138.16 248.171 137.739 247.488 136.896C246.806 136.043 246.464 134.827 246.464 133.248ZM247.888 133.232C247.888 134.373 247.979 135.269 248.16 135.92C248.342 136.571 248.603 137.029 248.944 137.296C249.296 137.552 249.739 137.68 250.272 137.68C250.816 137.68 251.264 137.547 251.616 137.28C251.979 137.003 252.251 136.539 252.432 135.888C252.624 135.237 252.72 134.352 252.72 133.232C252.72 132.08 252.624 131.179 252.432 130.528C252.251 129.867 251.979 129.403 251.616 129.136C251.264 128.859 250.816 128.72 250.272 128.72C249.472 128.72 248.875 129.061 248.48 129.744C248.086 130.427 247.888 131.589 247.888 133.232ZM261.874 135.36C261.628 136.768 261.495 137.664 261.474 138.048C261.378 138.016 261.09 138 260.61 138H255.378L255.346 137.28L257.218 135.504C257.836 134.907 258.338 134.379 258.722 133.92C259.116 133.461 259.426 132.976 259.65 132.464C259.884 131.952 260.002 131.403 260.002 130.816C260.002 130.144 259.858 129.627 259.57 129.264C259.282 128.901 258.892 128.72 258.402 128.72C257.922 128.72 257.532 128.832 257.234 129.056C256.935 129.269 256.786 129.568 256.786 129.952C256.786 130.08 256.818 130.24 256.882 130.432C256.935 130.56 256.962 130.688 256.962 130.816C256.962 131.029 256.882 131.184 256.722 131.28C256.572 131.365 256.407 131.408 256.226 131.408C255.98 131.408 255.783 131.328 255.634 131.168C255.495 131.008 255.426 130.784 255.426 130.496C255.426 130.123 255.538 129.771 255.762 129.44C255.986 129.099 256.332 128.821 256.802 128.608C257.271 128.395 257.847 128.288 258.53 128.288C259.383 128.288 260.082 128.491 260.626 128.896C261.17 129.291 261.442 129.952 261.442 130.88C261.442 131.317 261.356 131.739 261.186 132.144C261.026 132.539 260.732 132.987 260.306 133.488C259.879 133.989 259.266 134.597 258.466 135.312L256.61 136.944H259.442C260.039 136.944 260.482 136.832 260.77 136.608C261.058 136.373 261.234 135.957 261.298 135.36H261.874ZM269.968 135.36C269.722 136.768 269.589 137.664 269.568 138.048C269.472 138.016 269.184 138 268.704 138H263.472L263.44 137.28L265.312 135.504C265.93 134.907 266.432 134.379 266.816 133.92C267.21 133.461 267.52 132.976 267.744 132.464C267.978 131.952 268.096 131.403 268.096 130.816C268.096 130.144 267.952 129.627 267.664 129.264C267.376 128.901 266.986 128.72 266.496 128.72C266.016 128.72 265.626 128.832 265.328 129.056C265.029 129.269 264.88 129.568 264.88 129.952C264.88 130.08 264.912 130.24 264.976 130.432C265.029 130.56 265.056 130.688 265.056 130.816C265.056 131.029 264.976 131.184 264.816 131.28C264.666 131.365 264.501 131.408 264.32 131.408C264.074 131.408 263.877 131.328 263.728 131.168C263.589 131.008 263.52 130.784 263.52 130.496C263.52 130.123 263.632 129.771 263.856 129.44C264.08 129.099 264.426 128.821 264.896 128.608C265.365 128.395 265.941 128.288 266.624 128.288C267.477 128.288 268.176 128.491 268.72 128.896C269.264 129.291 269.536 129.952 269.536 130.88C269.536 131.317 269.45 131.739 269.28 132.144C269.12 132.539 268.826 132.987 268.4 133.488C267.973 133.989 267.36 134.597 266.56 135.312L264.704 136.944H267.536C268.133 136.944 268.576 136.832 268.864 136.608C269.152 136.373 269.328 135.957 269.392 135.36H269.968Z" fill="#FAC77C"/>
<defs>
<clipPath id="clip0_3_3">
<rect width="80" height="80" fill="white" transform="translate(166)"/>
</clipPath>
</defs>
</svg>
